:SAMPLES-PER-SECOND 30
:FULLY-SPECIFIED
:DEGREES
241
root  -55.1521 41.5908 -3.27389 -166.701 -84.831 167.47
RightUpLeg  1.89086 -7.43188 -4.72173
RightLeg  2.90285 0.0779507 3.12063
RightFoot  -3.13047 0.0901323 -1.50959
RightToes  5.82063e-011 0 -3.6325e-017
Spine  -1.49054 -0.700322 1.89541
Spine1  5.59406 -0.457646 -1.24516
HEad  -6.88759 -12.0745 -1.62874
LeftShoulder1  0.733686 -2.19121 -4.98546
LeftArm  -15.2813 7.24756 1.53124
LeftForeArm  13.7643 -5.33354 -3.06531
LeftHand  -0.244104 0.0205437 5.32207
RightShoulder  0.386199 -0.0387487 3.103
RightArm  -17.8128 2.37653 -1.11722
RightForeArm  2.09587 1.68576 4.27008
RightHand  -0.636081 0.990376 -11.6837
LeftUpLeg  1.76271 4.31296 2.55793
LeftLeg  -0.650368 8.03122 -3.80012
LeftFoot  -1.28688 0.00487051 0.0319699
LeftToes  4.36525e-011 -9.98543e-011 1.0027e-011
242
root  -55.1904 41.5903 -3.28877 -166.093 -84.9071 166.856
RightUpLeg  1.99325 -7.43793 -4.74583
RightLeg  2.85859 0.0113981 3.10725
RightFoot  -3.17097 0.0859298 -1.44425
RightToes  5.82063e-011 0 -3.6325e-017
Spine  -1.44245 -0.724563 1.89465
Spine1  5.55244 -0.478502 -1.25504
HEad  -6.7943 -12.1151 -1.57147
LeftShoulder1  0.730424 -2.14831 -5.02963
LeftArm  -15.1167 7.18012 1.59466
LeftForeArm  13.7659 -5.23721 -3.12066
LeftHand  -0.244104 0.0205437 5.32207
RightShoulder  0.403268 0.0524235 3.3241
RightArm  -17.6704 2.31064 -1.37423
RightForeArm  1.80612 1.73287 4.32688
RightHand  -0.639717 0.957753 -11.8065
LeftUpLeg  1.85532 4.27365 2.52522
LeftLeg  -0.732367 7.98349 -3.78383
LeftFoot  -1.27282 0.00504474 0.0292622
LeftToes  4.36525e-011 -9.98543e-011 1.0027e-011
243
root  -55.2207 41.5899 -3.30562 -165.351 -84.9939 166.062
RightUpLeg  2.14002 -7.46087 -4.79122
RightLeg  2.82572 -0.039259 3.10076
RightFoot  -3.23211 0.0800454 -1.35277
RightToes  5.82063e-011 0 -3.6325e-017
Spine  -1.30944 -0.742867 1.83269
Spine1  5.48471 -0.506467 -1.19187
HEad  -6.72481 -12.0839 -1.57366
LeftShoulder1  0.730488 -2.115 -5.11608
LeftArm  -15.1678 6.97782 1.60848
LeftForeArm  13.9803 -5.00358 -3.09413
LeftHand  -0.244104 0.0205437 5.32207
RightShoulder  0.40794 0.0662578 3.42253
RightArm  -17.5102 2.2698 -1.54463
RightForeArm  1.50892 1.72324 4.38936
RightHand  -0.660621 1.08385 -11.9604
LeftUpLeg  1.98665 4.23623 2.48958
LeftLeg  -0.801016 7.9155 -3.76775
LeftFoot  -1.26595 0.00566407 0.0196374
LeftToes  4.36525e-011 -9.98543e-011 1.0027e-011
244
root  -55.2465 41.5896 -3.3222 -164.603 -85.0861 165.291
RightUpLeg  2.22228 -7.49119 -4.82787
RightLeg  2.83347 -0.103868 3.10412
RightFoot  -3.28873 0.0785731 -1.32989
RightToes  5.82063e-011 0 -3.6325e-017
Spine  -1.19861 -0.740061 1.78706
Spine1  5.40029 -0.520668 -1.09665
HEad  -6.66523 -12.0592 -1.62163
LeftShoulder1  0.761112 -2.25412 -5.36122
LeftArm  -15.3619 6.8068 1.72691
LeftForeArm  14.2947 -4.80227 -3.00816
LeftHand  -0.244104 0.0205437 5.32207
RightShoulder  0.387327 -0.0756857 3.2751
RightArm  -17.4786 2.28516 -1.45429
RightForeArm  1.56871 1.6275 4.38914
RightHand  -0.678079 1.26476 -11.9527
LeftUpLeg  2.05632 4.17244 2.44208
LeftLeg  -0.837976 7.87787 -3.72148
LeftFoot  -1.26219 0.00833315 -0.0218415
LeftToes  4.36525e-011 -9.98543e-011 1.0027e-011
245
root  -55.2734 41.5893 -3.33903 -164.136 -85.1824 164.854
RightUpLeg  2.23363 -7.49764 -4.81371
RightLeg  2.84677 -0.221445 3.10607
RightFoot  -3.30817 0.0822262 -1.38668
RightToes  5.82063e-011 0 -3.6325e-017
Spine  -1.17375 -0.71549 1.79651
Spine1  5.33139 -0.515114 -1.00503
HEad  -6.59265 -12.0123 -1.68928
LeftShoulder1  0.820115 -2.5352 -5.77245
LeftArm  -15.4277 6.75244 2.0469
LeftForeArm  14.427 -4.77879 -2.97557
LeftHand  -0.244104 0.0205437 5.32207
RightShoulder  0.358338 -0.261123 2.99546
RightArm  -17.5488 2.23753 -1.21502
RightForeArm  1.72769 1.60191 4.3503
RightHand  -0.666236 1.22408 -11.8158
LeftUpLeg  2.04759 4.12427 2.42429
LeftLeg  -0.843075 7.83613 -3.67227
LeftFoot  -1.25996 0.00950048 -0.0399826
LeftToes  4.36525e-011 -9.98543e-011 1.0027e-011
246
root  -55.2963 41.5891 -3.35574 -164.161 -85.2317 164.899
RightUpLeg  2.25816 -7.4713 -4.75789
RightLeg  2.82975 -0.335551 3.09789
RightFoot  -3.29305 0.0874509 -1.4679
RightToes  5.82063e-011 0 -3.6325e-017
Spine  -1.16723 -0.679048 1.8311
Spine1  5.29112 -0.49193 -0.948969
HEad  -6.51527 -11.92 -1.76741
LeftShoulder1  0.872073 -2.76718 -6.14303
LeftArm  -15.3313 6.80318 2.37484
LeftForeArm  14.3901 -4.89006 -3.01005
LeftHand  -0.244104 0.0205437 5.32207
RightShoulder  0.344426 -0.332178 2.77919
RightArm  -17.6479 2.08931 -1.02793
RightForeArm  1.71901 1.68234 4.30984
RightHand  -0.636873 0.98151 -11.7137
LeftUpLeg  2.05746 4.12982 2.45428
LeftLeg  -0.849046 7.79533 -3.65408
LeftFoot  -1.26117 0.00734516 -0.00648766
LeftToes  4.36525e-011 -9.98543e-011 1.0027e-011
247
root  -55.3135 41.5888 -3.37038 -164.492 -85.2007 165.222
RightUpLeg  2.30866 -7.44683 -4.7114
RightLeg  2.80954 -0.362965 3.09516
RightFoot  -3.27925 0.0927233 -1.54988
RightToes  5.82063e-011 0 -3.6325e-017
Spine  -1.14013 -0.64136 1.88133
Spine1  5.28077 -0.44856 -0.979437
HEad  -6.476 -11.8622 -1.82143
LeftShoulder1  0.895751 -2.87603 -6.29416
LeftArm  -15.3004 6.92956 2.48936
LeftForeArm  14.4803 -5.0552 -3.0149
LeftHand  -0.244104 0.0205437 5.32207
RightShoulder  0.346548 -0.286172 2.6776
RightArm  -17.7479 1.92902 -0.923327
RightForeArm  1.6508 1.75617 4.27036
RightHand  -0.615773 0.783879 -11.6765
LeftUpLeg  2.12237 4.15189 2.49102
LeftLeg  -0.874647 7.81565 -3.64886
LeftFoot  -1.26863 0.00612187 0.0125231
LeftToes  4.36525e-011 -9.98543e-011 1.0027e-011
248
root  -55.3343 41.5886 -3.38232 -164.762 -85.1392 165.506
RightUpLeg  2.30968 -7.45812 -4.6989
RightLeg  2.83156 -0.317469 3.12091
RightFoot  -3.29122 0.0982752 -1.63621
RightToes  5.82063e-011 0 -3.6325e-017
Spine  -1.15278 -0.61373 1.98569
Spine1  5.29301 -0.388344 -1.13195
HEad  -6.45922 -11.9033 -1.80989
LeftShoulder1  0.902229 -2.93466 -6.26447
LeftArm  -15.4175 7.06798 2.40888
LeftForeArm  14.6838 -5.19032 -2.95966
LeftHand  -0.244104 0.0205437 5.32207
RightShoulder  0.352238 -0.226124 2.65094
RightArm  -17.7952 1.81715 -0.841606
RightForeArm  1.65054 1.79294 4.24735
RightHand  -0.605347 0.70801 -11.6176
LeftUpLeg  2.15445 4.13963 2.50034
LeftLeg  -0.886922 7.89519 -3.62211
LeftFoot  -1.28498 0.00929803 -0.0368363
LeftToes  4.36525e-011 -9.98543e-011 1.0027e-011
249
root  -55.358 41.5883 -3.39321 -164.928 -85.1087 165.724
RightUpLeg  2.25319 -7.4886 -4.69303
RightLeg  2.88407 -0.277429 3.16668
RightFoot  -3.31956 0.102962 -1.70909
RightToes  5.82063e-011 0 -3.6325e-017
Spine  -1.20303 -0.609905 2.13629
Spine1  5.29046 -0.336745 -1.35819
HEad  -6.38485 -11.9757 -1.76351
LeftShoulder1  0.901152 -2.95937 -6.18616
LeftArm  -15.5569 7.1122 2.26677
LeftForeArm  14.7414 -5.22053 -2.90518
LeftHand  -0.244104 0.0205437 5.32207
RightShoulder  0.357073 -0.198363 2.71458
RightArm  -17.7531 1.77146 -0.805527
RightForeArm  1.68571 1.84345 4.26074
RightHand  -0.600041 0.692848 -11.5446
LeftUpLeg  2.10638 4.11484 2.50654
LeftLeg  -0.841886 7.95446 -3.58153
LeftFoot  -1.32234 0.0138573 -0.107689
LeftToes  4.36525e-011 -9.98543e-011 1.0027e-011
250
root  -55.3703 41.588 -3.40541 -165.219 -85.1003 166.038
RightUpLeg  2.23856 -7.4965 -4.66325
RightLeg  2.91394 -0.271046 3.19837
RightFoot  -3.34509 0.105809 -1.75337
RightToes  5.82063e-011 0 -3.6325e-017
Spine  -1.16863 -0.631466 2.24441
Spine1  5.22474 -0.320835 -1.53955
HEad  -6.30481 -11.9968 -1.71244
LeftShoulder1  0.890795 -2.90666 -6.13286
LeftArm  -15.6495 7.02403 2.12972
LeftForeArm  14.624 -5.06778 -2.87196
LeftHand  -0.244104 0.0205437 5.32207
RightShoulder  0.363419 -0.183257 2.87543
RightArm  -17.7128 1.81961 -0.850483
RightForeArm  1.78672 1.88178 4.27773
RightHand  -0.609046 0.786994 -11.545
LeftUpLeg  2.06595 4.13294 2.54739
LeftLeg  -0.752551 7.94815 -3.55951
LeftFoot  -1.38328 0.015591 -0.134633
LeftToes  4.36525e-011 -9.98543e-011 1.0027e-011
251
root  -55.3751 41.5878 -3.42027 -165.634 -85.0798 166.409
RightUpLeg  2.31425 -7.47727 -4.62079
RightLeg  2.90211 -0.266853 3.20442
RightFoot  -3.36448 0.107867 -1.78538
RightToes  5.82063e-011 0 -3.6325e-017
Spine  -1.00787 -0.654706 2.24904
Spine1  5.10486 -0.330937 -1.60126
HEad  -6.30683 -12.0119 -1.67562
LeftShoulder1  0.881789 -2.84055 -6.13496
LeftArm  -15.7326 6.90811 2.04128
LeftForeArm  14.5981 -4.82823 -2.83099
LeftHand  -0.244104 0.0205437 5.32207
RightShoulder  0.36941 -0.170779 3.03335
RightArm  -17.7807 1.90988 -0.915114
RightForeArm  1.97997 1.86425 4.2534
RightHand  -0.633735 1.00782 -11.6108
LeftUpLeg  2.11204 4.1916 2.61416
LeftLeg  -0.684278 7.90952 -3.56377
LeftFoot  -1.44179 0.0153329 -0.130622
LeftToes  4.36525e-011 -9.98543e-011 1.0027e-011
252
root  -55.3914 41.5878 -3.43643 -165.868 -85.0497 166.602
RightUpLeg  2.38613 -7.46412 -4.59684
RightLeg  2.88743 -0.245072 3.20682
RightFoot  -3.38722 0.109806 -1.81554
RightToes  5.82063e-011 0 -3.6325e-017
Spine  -0.870483 -0.652926 2.19038
Spine1  5.00889 -0.331063 -1.58299
HEad  -6.36714 -12.0904 -1.65133
LeftShoulder1  0.891018 -2.88095 -6.19876
LeftArm  -15.7877 6.89782 2.04993
LeftForeArm  14.7499 -4.72156 -2.79282
LeftHand  -0.244104 0.0205437 5.32207
RightShoulder  0.373417 -0.15483 3.09988
RightArm  -17.8905 1.89929 -0.943072
RightForeArm  2.06882 1.85043 4.21253
RightHand  -0.649444 1.14829 -11.6503
LeftUpLeg  2.18511 4.23621 2.66416
LeftLeg  -0.680968 7.8884 -3.57748
LeftFoot  -1.46621 0.0161289 -0.142992
LeftToes  4.36525e-011 -9.98543e-011 1.0027e-011
253
root  -55.4126 41.5878 -3.45013 -165.756 -85.0255 166.533
RightUpLeg  2.34707 -7.47184 -4.59587
RightLeg  2.91102 -0.219293 3.22031
RightFoot  -3.41833 0.110506 -1.82643
RightToes  5.82063e-011 0 -3.6325e-017
Spine  -0.895356 -0.632673 2.128
Spine1  4.99351 -0.313743 -1.5579
HEad  -6.42152 -12.183 -1.61323
LeftShoulder1  0.913184 -3.0073 -6.27896
LeftArm  -15.7692 7.01296 2.12337
LeftForeArm  14.882 -4.8112 -2.78725
LeftHand  -0.244104 0.0205437 5.32207
RightShoulder  0.379353 -0.115632 3.11495
RightArm  -17.9001 1.76057 -0.970712
RightForeArm  1.86388 1.89568 4.21163
RightHand  -0.638007 1.02698 -11.6549
LeftUpLeg  2.18149 4.23885 2.67371
LeftLeg  -0.719081 7.9028 -3.58863
LeftFoot  -1.46085 0.0181361 -0.174186
LeftToes  4.36525e-011 -9.98543e-011 1.0027e-011
254
root  -55.4189 41.5878 -3.45957 -165.518 -85.004 166.398
RightUpLeg  2.23215 -7.48 -4.59466
RightLeg  2.95437 -0.205184 3.23416
RightFoot  -3.44692 0.109674 -1.81348
RightToes  5.82063e-011 0 -3.6325e-017
Spine  -1.01045 -0.623448 2.0526
Spine1  5.02299 -0.311786 -1.51804
HEad  -6.4961 -12.198 -1.5516
LeftShoulder1  0.929377 -3.09595 -6.34415
LeftArm  -15.7137 7.17247 2.19022
LeftForeArm  14.8736 -4.94408 -2.79862
LeftHand  -0.244104 0.0205437 5.32207
RightShoulder  0.383088 -0.0738973 3.13228
RightArm  -17.8245 1.65382 -1.01641
RightForeArm  1.51677 1.9291 4.24388
RightHand  -0.616119 0.773377 -11.7022
LeftUpLeg  2.10609 4.22492 2.6629
LeftLeg  -0.747836 7.93706 -3.59687
LeftFoot  -1.45752 0.0197715 -0.199599
LeftToes  4.36525e-011 -9.98543e-011 1.0027e-011
255
root  -55.4225 41.5878 -3.46704 -165.451 -84.9874 166.403
RightUpLeg  2.16831 -7.47375 -4.58001
RightLeg  2.96253 -0.206575 3.23913
RightFoot  -3.45667 0.109118 -1.80483
RightToes  5.82063e-011 0 -3.6325e-017
Spine  -1.04975 -0.635041 1.93694
Spine1  5.02824 -0.345747 -1.40988
HEad  -6.6642 -12.1486 -1.49553
LeftShoulder1  0.937142 -3.1103 -6.44152
LeftArm  -15.6651 7.2896 2.26384
LeftForeArm  14.8096 -5.00053 -2.80535
LeftHand  -0.244104 0.0205437 5.32207
RightShoulder  0.3797 -0.0992294 3.11124
RightArm  -17.7995 1.69071 -1.01417
RightForeArm  1.32856 1.87075 4.25544
RightHand  -0.61022 0.657554 -11.8029
LeftUpLeg  2.05411 4.22533 2.66758
LeftLeg  -0.75526 7.95619 -3.60188
LeftFoot  -1.46717 0.0208921 -0.217015
LeftToes  4.36525e-011 -9.98543e-011 1.0027e-011
